<?xml version="1.0" standalone="no"?>
<!DOCTYPE svg PUBLIC "-//W3C//DTD SVG 20010904//EN"
 "http://www.w3.org/TR/2001/REC-SVG-20010904/DTD/svg10.dtd">
<svg version="1.0" xmlns="http://www.w3.org/2000/svg"
 width="1455.000000pt" height="1455.000000pt" viewBox="0 0 1455.000000 1455.000000"
 preserveAspectRatio="xMidYMid meet">
<metadata>
Created by potrace 1.14, written by Peter Selinger 2001-2017
</metadata>
<g transform="translate(0.000000,1455.000000) scale(0.100000,-0.100000)"
fill="#000000" stroke="none">
<path d="M3850 11559 c-541 -45 -1030 -183 -1505 -423 -696 -353 -1271 -887
-1692 -1571 -319 -518 -544 -1170 -612 -1775 -29 -255 -31 -422 -31 -2601 l0
-2249 1035 0 1035 0 0 1135 0 1135 2331 -2 2331 -3 60 -105 c639 -1114 1708
-1870 2928 -2069 69 -11 175 -26 235 -33 148 -17 674 -17 830 0 495 55 957
191 1396 411 85 43 177 92 205 109 l49 31 3 -294 2 -295 1040 0 1040 0 0 4305
0 4305 -1040 0 -1040 0 0 -2218 c0 -2403 1 -2334 -54 -2580 -199 -881 -855
-1536 -1691 -1688 -121 -22 -418 -30 -542 -14 -847 104 -1543 734 -1774 1604
-54 206 -70 328 -79 636 -12 370 -31 557 -86 830 -366 1799 -1789 3168 -3529
3394 -276 36 -602 46 -845 25z m557 -2084 c148 -20 220 -36 358 -81 480 -158
891 -500 1157 -964 178 -309 286 -673 305 -1022 l6 -118 -2071 0 -2072 0 0 58
c0 31 7 115 15 186 92 785 562 1459 1238 1775 325 153 707 212 1064 166z"/>
</g>
</svg>
